<svg width="1em" height="1em" version="1.1" viewBox="0 0 16 16" fill="currentColor" xmlns="http://www.w3.org/2000/svg" focusable="false">
 <g transform="matrix(.87584 0 0 .87584 1.0069 .98467)" shape-rendering="auto" stroke-width="2.1346">
  <path d="m0.82227-0.30273a1.0673 1.0673 0 0 0-0.72656 0.30664 1.0673 1.0673 0 0 0-0.011719 1.5098l14.279 14.49a1.0673 1.0673 0 0 0 1.5098 0.01172 1.0673 1.0673 0 0 0 0.01172-1.5098l-14.279-14.492a1.0673 1.0673 0 0 0-0.7832-0.31641z"/>
  <path d="m15.061-0.26953a1.0673 1.0673 0 0 0-0.72266 0.31641l-14.227 14.426a1.0673 1.0673 0 0 0 0.009766 1.5098 1.0673 1.0673 0 0 0 1.5098-0.01172l14.227-14.424a1.0673 1.0673 0 0 0-0.0098-1.5098 1.0673 1.0673 0 0 0-0.78711-0.30664z"/>
 </g>
</svg>
